<?xml version="1.0" standalone="no"?>
<!DOCTYPE svg PUBLIC "-//W3C//DTD SVG 20010904//EN"
 "http://www.w3.org/TR/2001/REC-SVG-20010904/DTD/svg10.dtd">
<svg version="1.0" xmlns="http://www.w3.org/2000/svg"
 width="538.000000pt" height="464.000000pt" viewBox="0 0 538.000000 464.000000"
 preserveAspectRatio="xMidYMid meet">

<g transform="translate(0.000000,464.000000) scale(0.100000,-0.100000)"
fill="#000000" stroke="none">
<path d="M3234 3735 c23 -57 28 -95 21 -155 -3 -36 -6 -82 -5 -104 0 -29 -3
-37 -13 -33 -9 3 -30 -17 -57 -54 -24 -32 -49 -59 -56 -59 -19 0 -18 6 10 43
43 58 59 97 45 113 -17 21 -115 77 -172 99 -26 10 -50 22 -54 28 -8 13 110 -1
161 -19 53 -19 56 -11 8 21 -87 58 -236 71 -375 34 -251 -68 -417 -314 -405
-598 5 -113 25 -166 89 -236 58 -63 85 -75 167 -75 126 0 205 45 310 175 37
46 81 110 97 142 33 62 62 81 109 69 19 -5 32 -18 43 -44 15 -35 14 -45 -11
-170 -86 -438 -294 -808 -522 -929 -107 -57 -236 -75 -333 -47 -37 11 -17 -12
32 -38 34 -18 58 -22 132 -21 155 1 257 53 401 206 74 79 94 94 154 118 197
76 355 244 426 454 39 114 46 295 15 415 -24 96 -72 195 -131 274 l-41 54 15
53 c9 29 16 76 16 105 0 62 -31 153 -62 180 -21 19 -21 19 -14 -1z"/>
<path d="M2083 3257 c-127 -225 -131 -493 -11 -719 38 -71 116 -170 146 -183
12 -5 22 -14 22 -19 0 -5 7 -17 16 -27 14 -16 14 -20 0 -48 -13 -25 -14 -34
-4 -51 21 -34 37 -32 32 3 -9 60 5 62 98 13 104 -54 148 -64 180 -42 78 55
165 160 241 291 45 76 117 235 117 257 0 5 -21 -9 -47 -31 -26 -23 -80 -58
-120 -78 -174 -86 -390 -41 -544 112 -121 120 -157 312 -99 521 10 38 17 70
16 71 -1 2 -21 -30 -43 -70z"/>
<path d="M1272 1729 c-109 -54 -140 -188 -65 -287 47 -62 145 -90 219 -61 20
7 34 7 50 -1 11 -7 32 -10 45 -8 23 3 24 6 27 96 l3 92 -91 0 -90 0 0 -29 c0
-24 5 -30 33 -35 l32 -7 -24 -19 c-14 -13 -38 -20 -63 -20 -88 0 -132 108 -72
179 35 42 81 49 133 21 35 -20 43 -22 70 -10 40 16 39 33 -1 63 -69 51 -138
59 -206 26z"/>
<path d="M3496 1730 c-53 -27 -64 -38 -88 -84 -42 -83 -20 -179 56 -240 35
-28 44 -31 111 -31 67 0 77 3 112 31 21 16 48 50 61 75 79 151 -98 326 -252
249z m147 -87 c75 -67 36 -193 -59 -193 -71 0 -114 43 -114 113 0 38 30 83 64
98 29 12 85 3 109 -18z"/>
<path d="M4032 1739 c-18 -6 -50 -27 -71 -48 -113 -113 -45 -306 114 -319 70
-6 116 11 159 58 46 51 61 108 46 169 -28 113 -134 173 -248 140z m141 -109
c39 -43 38 -106 -2 -149 -24 -26 -36 -31 -76 -31 -38 0 -52 5 -76 29 -23 24
-29 38 -29 74 0 106 114 154 183 77z"/>
<path d="M1707 1733 c-10 -9 -8 -169 2 -222 30 -154 211 -192 298 -62 20 29
23 48 24 132 1 55 2 113 3 129 1 29 -1 30 -41 30 l-43 0 0 -122 c-1 -133 -6
-149 -54 -168 -20 -7 -36 -6 -61 4 -46 20 -58 65 -49 190 l7 96 -40 0 c-22 0
-43 -3 -46 -7z"/>
<path d="M2192 1558 l3 -183 38 -3 37 -3 0 111 c0 85 3 111 13 108 6 -2 41
-52 76 -111 l63 -107 49 0 49 0 0 185 0 185 -40 0 -40 0 0 -110 c0 -60 -4
-110 -8 -110 -4 0 -36 50 -71 110 l-62 110 -55 0 -54 0 2 -182z"/>
<path d="M2690 1728 c0 -10 49 -171 106 -346 2 -9 18 -12 46 -10 l43 3 28 100
c16 55 31 102 33 105 9 9 23 -25 45 -105 11 -44 26 -86 32 -93 6 -8 25 -12 46
-10 l36 3 57 170 c31 94 57 176 57 183 1 9 -11 12 -41 10 l-42 -3 -30 -99
c-17 -54 -35 -99 -41 -100 -5 0 -15 22 -23 49 -7 28 -20 74 -28 103 l-15 52
-48 0 c-47 0 -49 -1 -55 -32 -12 -63 -49 -178 -57 -178 -4 0 -10 8 -13 18 -3
9 -17 56 -31 105 l-26 87 -40 0 c-24 0 -39 -5 -39 -12z"/>
</g>
</svg>
